<?xml version="1.0" encoding="UTF-8" standalone="no"?>
<svg
   width="16px"
   height="16px"
   viewBox="0 0 16 16"
   version="1.1"
   id="svg6"
   sodipodi:docname="file_type_cython.svg"
   inkscape:version="1.2.1 (9c6d41e410, 2022-07-14)"
   xml:space="preserve"
   xmlns:inkscape="http://www.inkscape.org/namespaces/inkscape"
   xmlns:sodipodi="http://sodipodi.sourceforge.net/DTD/sodipodi-0.dtd"
   xmlns="http://www.w3.org/2000/svg"
   xmlns:svg="http://www.w3.org/2000/svg"><defs
     id="defs10" /><sodipodi:namedview
     id="namedview8"
     pagecolor="#ffffff"
     bordercolor="#000000"
     borderopacity="0.25"
     inkscape:showpageshadow="2"
     inkscape:pageopacity="0.0"
     inkscape:pagecheckerboard="0"
     inkscape:deskcolor="#d1d1d1"
     showgrid="false"
     inkscape:zoom="32"
     inkscape:cx="6.609375"
     inkscape:cy="8.265625"
     inkscape:window-width="1920"
     inkscape:window-height="1001"
     inkscape:window-x="-9"
     inkscape:window-y="-9"
     inkscape:window-maximized="1"
     inkscape:current-layer="svg6" /><title
     id="title2">file_type_c</title><g
     id="file_type_c"
     stroke="none"
     stroke-width="1"
     fill="none"
     fill-rule="evenodd"
     style="fill:#b3b3b3"
     transform="matrix(1.122198,0,0,1.122198,-1.3116131,-0.47594152)"><path
       d="M 12.137342,4.7916263 C 12.02964,3.7696695 9.8415475,2.7008153 8.4527905,2.8183487 7.4909766,2.7949187 6.0925702,3.335469 5.3230226,4.5515729 4.772318,5.4218427 4.5601754,6.6346542 4.5601754,7.5543562 c 0,0.9986488 0.3490029,2.3472418 1.0408763,3.3199618 0.6895648,0.969474 1.7205485,1.564746 2.5893739,1.564746 0.7712644,0 1.6815718,-0.09471 2.3692484,-0.47864 0.864244,-0.482507 1.422124,-1.276959 1.422124,-1.276959 l 2.303117,0.0096 c -0.754779,0.890617 -0.804098,0.94295 -1.636383,1.784064 C 11.488902,13.56721 9.6694371,13.65615 8.4684539,13.69056 7.0327795,13.611708 5.255121,13.408906 4.0867355,12.230156 2.803026,10.977246 1.9178883,9.4531658 2.0111739,7.6640412 1.8934126,5.6821424 2.8678474,3.9156037 4.3788174,2.6233693 5.4989651,1.8681829 6.861746,1.4753228 8.3347731,1.4154044 11.250535,1.5574639 13.199617,2.5367551 14.59375,4.8442169 Z"
       id="file_type_c.svg"
       fill="#245E8D"
       style="fill:#b3b3b3"
       sodipodi:nodetypes="ccssssscccccccccc" /></g><g
     id="g1026"
     transform="matrix(1.559572,0,0,1.559572,-5.2970802,-3.9704724)"><path
       style="fill:#346c99;fill-opacity:1;fill-rule:evenodd;stroke:none;stroke-width:0.431689"
       d="m 9.0149516,4.7615835 c -1.4794298,0 -1.3870175,0.644805 -1.3870175,0.644805 V 6.0745046 H 9.041593 v 0.200643 H 7.0688812 c 0,0 -0.946602,-0.1078144 -0.946602,1.3928453 0,1.5006597 0.8262994,1.4473767 0.8262994,1.4473767 H 7.4414444 V 8.4189471 C 7.428417,8.1978371 7.5091961,7.9814783 7.6639425,7.8230079 7.8186889,7.6645375 8.0330659,7.578637 8.2544231,7.5864036 h 1.4007545 c 0.2074262,0.0092 0.4094564,-0.067602 0.5583844,-0.2122761 0.148929,-0.1446738 0.231555,-0.344393 0.228369,-0.5519988 V 5.5391791 c 0,0 0.11947,-0.7775956 -1.4269794,-0.7775956 z M 8.2365234,5.2107377 c 0.1033206,-5.008e-4 0.1967491,0.061347 0.2366391,0.1566581 0.03989,0.095311 0.018367,0.2052704 -0.054513,0.278509 -0.07288,0.073239 -0.1827326,0.0953 -0.2782382,0.055878 -0.095505,-0.039422 -0.157815,-0.1325456 -0.157815,-0.2358675 -2.198e-4,-0.067528 0.026422,-0.1323716 0.074054,-0.1802382 0.047632,-0.047866 0.1123447,-0.074826 0.1798731,-0.074939 z"
       id="path14" /><path
       style="fill:#e6b045;fill-rule:evenodd;stroke:none;stroke-width:0.431689"
       d="m 9.0578276,10.589388 c 1.4794294,0 1.3870174,-0.6448051 1.3870174,-0.6448051 V 9.2764669 H 9.0311862 V 9.0758238 h 1.9727118 c 0,0 0.946186,0.1078144 0.946186,-1.3928452 0,-1.5006596 -0.8263,-1.4473768 -0.8263,-1.4473768 h -0.492449 v 0.6964226 c 0.01303,0.22111 -0.06775,0.4374688 -0.222498,0.5959392 C 10.25409,7.686434 10.039713,7.7723344 9.8183561,7.7645679 H 8.4176016 C 8.2101753,7.7553664 8.0081456,7.8321702 7.8592167,7.976844 7.7102878,8.1215178 7.6276615,8.321237 7.630848,8.5288428 v 1.285031 c 0,0 -0.11947,0.7755142 1.4269796,0.7755142 z m 0.7784281,-0.449154 c -0.1033206,5.18e-4 -0.1967491,-0.06135 -0.2366391,-0.1566584 -0.03989,-0.095311 -0.018367,-0.2052704 0.054513,-0.278509 0.07288,-0.073238 0.1827326,-0.0953 0.2782382,-0.055878 0.095506,0.039422 0.1578152,0.1325454 0.1578152,0.2358677 2.2e-4,0.067527 -0.02642,0.1323717 -0.07405,0.1802377 -0.047632,0.04787 -0.1123438,0.07483 -0.1798719,0.07494 z"
       id="path986" /></g></svg>
